<?xml version="1.0" encoding="UTF-8"?>
<!DOCTYPE svg PUBLIC "-//W3C//DTD SVG 1.0//EN" "http://www.w3.org/TR/2001/REC-SVG-20010904/DTD/svg10.dtd">
<!-- Creator: CorelDRAW X7 -->
<svg xmlns="http://www.w3.org/2000/svg" xml:space="preserve" width="310.293mm" height="309.925mm" version="1.0" style="shape-rendering:geometricPrecision; text-rendering:geometricPrecision; image-rendering:optimizeQuality; fill-rule:evenodd; clip-rule:evenodd"
viewBox="0 0 31006 30969"
 xmlns:xlink="http://www.w3.org/1999/xlink">
 <defs>
  <style type="text/css">
   <![CDATA[
    .str0 {stroke:#FEFEFE;stroke-width:49.9629}
    .str2 {stroke:#373435;stroke-width:19.9852}
    .str1 {stroke:#FEFEFE;stroke-width:9.99258}
    .str3 {stroke:#FEFEFE;stroke-width:49.9629;stroke-linejoin:bevel}
    .fil6 {fill:none}
    .fil4 {fill:#FEFEFE}
    .fil2 {fill:#D2D3D5}
    .fil3 {fill:#4B4B4D}
    .fil0 {fill:#A3B9C4}
    .fil5 {fill:#D9E3E8}
    .fil1 {fill:#E0C2A8}
   ]]>
  </style>
 </defs>
 <g id="SITE_x0020_BACKGROUND">
  <metadata id="CorelCorpID_0Corel-Layer"/>
  <polygon id="NPROADB1F5001" class="fil0" points="5182,3937 9568,4199 25361,3521 26130,4198 26872,4946 27517,5687 28191,6577 28144,22987 28243,23511 28480,23951 27907,24768 27244,25590 26503,26391 25634,27201 5446,27247 4807,26668 4430,26295 4050,25892 3762,25566 3805,5337 4310,4782 4767,4323 "/>
  <polygon id="NPSITEB1F5001" class="fil1 str0" points="25,15476 72,14255 211,13066 408,12037 618,11216 918,10282 1271,9432 2835,6577 3176,6064 3543,5647 3805,5337 9212,5926 25858,5926 26295,6014 26648,6199 26859,6565 26902,6987 26986,24301 26925,24708 26704,25015 26275,25216 25814,25239 3762,25566 3069,24699 2513,23899 2055,23147 1780,22645 1414,21896 1119,21205 796,20317 419,18962 194,17774 82,16809 "/>
  <path id="NPPAVINGB1F5001" class="fil2 str1" d="M25361 3521l-15793 678 -4386 -262 1113 -908 903 -622 923 -545 1169 -573 1420 -542 1253 -350 1294 -246 1340 -137 1652 -9 1258 110 1301 224 1119 287 1374 479 1402 649 1402 833 1256 934zm4147 18601l-366 719 -349 612 -313 498 -251 -465 -85 -499 9 -15868 38 -542 255 373 329 520 341 594 550 1110 479 1210 380 1263 315 1580 110 971 40 654 11 476 -3 497 -32 709 -65 718 -93 685 -111 614 -98 451 -156 613 -196 652 -355 978 -384 877zm-6292 6795l-1018 535 -501 229 -738 299 -608 214 -762 229 -898 230 -1326 202 -1742 109 -1408 -53 -1258 -156 -1226 -255 -1388 -419 -1170 -469 -658 -315 -617 -331 -1061 -658 -577 -410 -814 -651 20188 -46 -502 416 -297 230 -411 300 -466 316 -742 454z"/>
  <polygon id="NPSiteBuildingB1F5001" class="fil3 str2" points="8222,12514 8222,6345 10886,6344 10886,12514 "/>
  <polygon id="NPMALLFLOORB1F5001" class="fil4" points="26045,24676 25217,24671 25217,24622 23236,24630 23236,23398 12539,23421 12539,22817 9014,22817 9014,20258 4080,20223 4080,17663 10576,17658 10580,16218 10571,14433 10571,13061 12401,13060 12392,10588 14256,10596 14270,8607 14270,6553 14704,6552 14704,6445 22870,6445 22883,6389 24865,6389 24865,6783 25473,6783 25473,7364 25756,7364 25811,14561 26045,14561 "/>
  <path id="NPPAVINGB1F5002" class="fil5" d="M7964 6626l-38 6430 2472 11c0,0 -6,4314 85,4314 90,1 -9243,-31 -9243,-31l13 -7917 257 -583 250 -504 336 -613 388 -634 351 -522 5129 49z"/>
  <g id="_2846738964624">
   <line id="NPParkingLinesB1F5001" class="fil6 str3" x1="10289" y1="17383" x2="10288" y2= "16752" />
   <line id="NPParkingLinesB1F5001_0" class="fil6 str3" x1="9976" y1="17347" x2="9974" y2= "16759" />
   <line id="NPParkingLinesB1F5001_1" class="fil6 str3" x1="9685" y1="17386" x2="9683" y2= "16762" />
   <line id="NPParkingLinesB1F5001_2" class="fil6 str3" x1="9385" y1="17347" x2="9383" y2= "16762" />
   <line id="NPParkingLinesB1F5001_3" class="fil6 str3" x1="9110" y1="17347" x2="9108" y2= "16765" />
   <line id="NPParkingLinesB1F5001_4" class="fil6 str3" x1="8893" y1="17348" x2="8891" y2= "16759" />
   <line id="NPParkingLinesB1F5001_5" class="fil6 str3" x1="8602" y1="17350" x2="8600" y2= "16762" />
   <line id="NPParkingLinesB1F5001_6" class="fil6 str3" x1="8303" y1="17347" x2="8301" y2= "16762" />
   <line id="NPParkingLinesB1F5001_7" class="fil6 str3" x1="8027" y1="17355" x2="8025" y2= "16765" />
   <line id="NPParkingLinesB1F5001_8" class="fil6 str3" x1="7756" y1="17348" x2="7754" y2= "16759" />
   <line id="NPParkingLinesB1F5001_9" class="fil6 str3" x1="10288" y1="17337" x2="7756" y2= "17357" />
   <line id="NPParkingLinesB1F5001_10" class="fil6 str3" x1="7324" y1="17359" x2="7323" y2= "16729" />
   <line id="NPParkingLinesB1F5001_11" class="fil6 str3" x1="7011" y1="17323" x2="7009" y2= "16735" />
   <line id="NPParkingLinesB1F5001_12" class="fil6 str3" x1="6720" y1="17363" x2="6718" y2= "16738" />
   <line id="NPParkingLinesB1F5001_13" class="fil6 str3" x1="6420" y1="17323" x2="6418" y2= "16738" />
   <line id="NPParkingLinesB1F5001_14" class="fil6 str3" x1="6145" y1="17323" x2="6143" y2= "16741" />
   <line id="NPParkingLinesB1F5001_15" class="fil6 str3" x1="5928" y1="17324" x2="5926" y2= "16735" />
   <line id="NPParkingLinesB1F5001_16" class="fil6 str3" x1="5637" y1="17327" x2="5635" y2= "16738" />
   <line id="NPParkingLinesB1F5001_17" class="fil6 str3" x1="5338" y1="17324" x2="5335" y2= "16738" />
   <line id="NPParkingLinesB1F5001_18" class="fil6 str3" x1="5062" y1="17331" x2="5060" y2= "16741" />
   <line id="NPParkingLinesB1F5001_19" class="fil6 str3" x1="4791" y1="17324" x2="4789" y2= "16735" />
   <line id="NPParkingLinesB1F5001_20" class="fil6 str3" x1="7323" y1="17313" x2="4791" y2= "17334" />
   <line id="NPParkingLinesB1F5001_21" class="fil6 str3" x1="4458" y1="17368" x2="4457" y2= "16737" />
   <line id="NPParkingLinesB1F5001_22" class="fil6 str3" x1="4145" y1="17332" x2="4143" y2= "16744" />
   <line id="NPParkingLinesB1F5001_23" class="fil6 str3" x1="3854" y1="17372" x2="3852" y2= "16747" />
   <line id="NPParkingLinesB1F5001_24" class="fil6 str3" x1="3554" y1="17332" x2="3552" y2= "16747" />
   <line id="NPParkingLinesB1F5001_25" class="fil6 str3" x1="3279" y1="17332" x2="3277" y2= "16750" />
   <line id="NPParkingLinesB1F5001_26" class="fil6 str3" x1="3062" y1="17333" x2="3060" y2= "16744" />
   <line id="NPParkingLinesB1F5001_27" class="fil6 str3" x1="2771" y1="17336" x2="2769" y2= "16747" />
   <line id="NPParkingLinesB1F5001_28" class="fil6 str3" x1="2472" y1="17332" x2="2470" y2= "16747" />
   <line id="NPParkingLinesB1F5001_29" class="fil6 str3" x1="2196" y1="17340" x2="2194" y2= "16750" />
   <line id="NPParkingLinesB1F5001_30" class="fil6 str3" x1="1925" y1="17333" x2="1923" y2= "16744" />
   <line id="NPParkingLinesB1F5001_31" class="fil6 str3" x1="4457" y1="17322" x2="1925" y2= "17342" />
   <line id="NPParkingLinesB1F5001_32" class="fil6 str3" x1="6885" y1="7131" x2="5623" y2= "7133" />
   <line id="NPParkingLinesB1F5001_33" class="fil6 str3" x1="6879" y1="7443" x2="5630" y2= "7447" />
   <line id="NPParkingLinesB1F5001_34" class="fil6 str3" x1="6882" y1="7734" x2="5633" y2= "7738" />
   <line id="NPParkingLinesB1F5001_35" class="fil6 str3" x1="6882" y1="8033" x2="5633" y2= "8038" />
   <line id="NPParkingLinesB1F5001_36" class="fil6 str3" x1="6885" y1="8309" x2="5636" y2= "8313" />
   <line id="NPParkingLinesB1F5001_37" class="fil6 str3" x1="6879" y1="8526" x2="5630" y2= "8530" />
   <line id="NPParkingLinesB1F5001_38" class="fil6 str3" x1="6882" y1="8817" x2="5633" y2= "8821" />
   <line id="NPParkingLinesB1F5001_39" class="fil6 str3" x1="6882" y1="9116" x2="5633" y2= "9121" />
   <line id="NPParkingLinesB1F5001_40" class="fil6 str3" x1="6885" y1="9392" x2="5636" y2= "9396" />
   <line id="NPParkingLinesB1F5001_41" class="fil6 str3" x1="6879" y1="9663" x2="5630" y2= "9667" />
   <line id="NPParkingLinesB1F5001_42" class="fil6 str3" x1="6208" y1="7133" x2="6228" y2= "9665" />
   <line id="NPParkingLinesB1F5001_43" class="fil6 str3" x1="6885" y1="10300" x2="5623" y2= "10302" />
   <line id="NPParkingLinesB1F5001_44" class="fil6 str3" x1="6879" y1="10612" x2="5630" y2= "10616" />
   <line id="NPParkingLinesB1F5001_45" class="fil6 str3" x1="6882" y1="10903" x2="5633" y2= "10907" />
   <line id="NPParkingLinesB1F5001_46" class="fil6 str3" x1="6882" y1="11202" x2="5633" y2= "11207" />
   <line id="NPParkingLinesB1F5001_47" class="fil6 str3" x1="6885" y1="11478" x2="5636" y2= "11482" />
   <line id="NPParkingLinesB1F5001_48" class="fil6 str3" x1="6879" y1="11695" x2="5630" y2= "11699" />
   <line id="NPParkingLinesB1F5001_49" class="fil6 str3" x1="6882" y1="11986" x2="5633" y2= "11990" />
   <line id="NPParkingLinesB1F5001_50" class="fil6 str3" x1="6882" y1="12285" x2="5633" y2= "12290" />
   <line id="NPParkingLinesB1F5001_51" class="fil6 str3" x1="6885" y1="12561" x2="5636" y2= "12565" />
   <line id="NPParkingLinesB1F5001_52" class="fil6 str3" x1="6879" y1="12832" x2="5630" y2= "12836" />
   <line id="NPParkingLinesB1F5001_53" class="fil6 str3" x1="6208" y1="10302" x2="6228" y2= "12834" />
   <line id="NPParkingLinesB1F5001_54" class="fil6 str3" x1="4552" y1="7110" x2="3291" y2= "7112" />
   <line id="NPParkingLinesB1F5001_55" class="fil6 str3" x1="4547" y1="7422" x2="3298" y2= "7426" />
   <line id="NPParkingLinesB1F5001_56" class="fil6 str3" x1="4550" y1="7713" x2="3301" y2= "7717" />
   <line id="NPParkingLinesB1F5001_57" class="fil6 str3" x1="4550" y1="8012" x2="3301" y2= "8017" />
   <line id="NPParkingLinesB1F5001_58" class="fil6 str3" x1="4552" y1="8288" x2="3303" y2= "8292" />
   <line id="NPParkingLinesB1F5001_59" class="fil6 str3" x1="4547" y1="8505" x2="3298" y2= "8509" />
   <line id="NPParkingLinesB1F5001_60" class="fil6 str3" x1="4550" y1="8796" x2="3301" y2= "8800" />
   <line id="NPParkingLinesB1F5001_61" class="fil6 str3" x1="4550" y1="9095" x2="3301" y2= "9100" />
   <line id="NPParkingLinesB1F5001_62" class="fil6 str3" x1="4552" y1="9371" x2="3303" y2= "9375" />
   <line id="NPParkingLinesB1F5001_63" class="fil6 str3" x1="4547" y1="9642" x2="3298" y2= "9646" />
   <line id="NPParkingLinesB1F5001_64" class="fil6 str3" x1="3875" y1="7112" x2="3896" y2= "9644" />
   <line id="NPParkingLinesB1F5001_65" class="fil6 str3" x1="4552" y1="10279" x2="3291" y2= "10281" />
   <line id="NPParkingLinesB1F5001_66" class="fil6 str3" x1="4546" y1="10591" x2="3297" y2= "10595" />
   <line id="NPParkingLinesB1F5001_67" class="fil6 str3" x1="4549" y1="10882" x2="3300" y2= "10886" />
   <line id="NPParkingLinesB1F5001_68" class="fil6 str3" x1="4549" y1="11181" x2="3300" y2= "11186" />
   <line id="NPParkingLinesB1F5001_69" class="fil6 str3" x1="4552" y1="11457" x2="3303" y2= "11461" />
   <line id="NPParkingLinesB1F5001_70" class="fil6 str3" x1="4546" y1="11674" x2="3297" y2= "11678" />
   <line id="NPParkingLinesB1F5001_71" class="fil6 str3" x1="4549" y1="11965" x2="3300" y2= "11969" />
   <line id="NPParkingLinesB1F5001_72" class="fil6 str3" x1="4549" y1="12264" x2="3300" y2= "12269" />
   <line id="NPParkingLinesB1F5001_73" class="fil6 str3" x1="4552" y1="12540" x2="3303" y2= "12544" />
   <line id="NPParkingLinesB1F5001_74" class="fil6 str3" x1="4546" y1="12811" x2="3297" y2= "12815" />
   <line id="NPParkingLinesB1F5001_75" class="fil6 str3" x1="3875" y1="10281" x2="3896" y2= "12813" />
   <line id="NPParkingLinesB1F5001_76" class="fil6 str3" x1="1196" y1="9746" x2="1827" y2= "9745" />
   <line id="NPParkingLinesB1F5001_77" class="fil6 str3" x1="1253" y1="9433" x2="1821" y2= "9431" />
   <line id="NPParkingLinesB1F5001_78" class="fil6 str3" x1="1406" y1="9142" x2="1818" y2= "9140" />
   <line id="NPParkingLinesB1F5001_79" class="fil6 str3" x1="1525" y1="8842" x2="1818" y2= "8840" />
   <line id="NPParkingLinesB1F5001_80" class="fil6 str3" x1="1649" y1="8567" x2="1815" y2= "8565" />
   <line id="NPParkingLinesB1F5001_81" class="fil6 str3" x1="1243" y1="9745" x2="1222" y2= "7213" />
   <line id="NPParkingLinesB1F5001_82" class="fil6 str3" x1="1218" y1="12665" x2="1848" y2= "12664" />
   <line id="NPParkingLinesB1F5001_83" class="fil6 str3" x1="1254" y1="12351" x2="1842" y2= "12349" />
   <line id="NPParkingLinesB1F5001_84" class="fil6 str3" x1="1214" y1="12061" x2="1839" y2= "12059" />
   <line id="NPParkingLinesB1F5001_85" class="fil6 str3" x1="1254" y1="11761" x2="1839" y2= "11759" />
   <line id="NPParkingLinesB1F5001_86" class="fil6 str3" x1="1254" y1="11486" x2="1836" y2= "11484" />
   <line id="NPParkingLinesB1F5001_87" class="fil6 str3" x1="1253" y1="11269" x2="1842" y2= "11267" />
   <line id="NPParkingLinesB1F5001_88" class="fil6 str3" x1="1250" y1="10978" x2="1839" y2= "10976" />
   <line id="NPParkingLinesB1F5001_89" class="fil6 str3" x1="1253" y1="10678" x2="1839" y2= "10676" />
   <line id="NPParkingLinesB1F5001_90" class="fil6 str3" x1="1246" y1="10403" x2="1836" y2= "10401" />
   <line id="NPParkingLinesB1F5001_91" class="fil6 str3" x1="1253" y1="10132" x2="1842" y2= "10130" />
   <line id="NPParkingLinesB1F5001_92" class="fil6 str3" x1="1264" y1="12663" x2="1243" y2= "10132" />
   <line id="NPParkingLinesB1F5001_93" class="fil6 str3" x1="9529" y1="13565" x2="8267" y2= "13567" />
   <line id="NPParkingLinesB1F5001_94" class="fil6 str3" x1="9523" y1="13877" x2="8274" y2= "13882" />
   <line id="NPParkingLinesB1F5001_95" class="fil6 str3" x1="9526" y1="14168" x2="8277" y2= "14172" />
   <line id="NPParkingLinesB1F5001_96" class="fil6 str3" x1="9526" y1="14468" x2="8277" y2= "14472" />
   <line id="NPParkingLinesB1F5001_97" class="fil6 str3" x1="9529" y1="14743" x2="8280" y2= "14747" />
   <line id="NPParkingLinesB1F5001_98" class="fil6 str3" x1="9523" y1="14960" x2="8274" y2= "14964" />
   <line id="NPParkingLinesB1F5001_99" class="fil6 str3" x1="9526" y1="15251" x2="8277" y2= "15255" />
   <line id="NPParkingLinesB1F5001_100" class="fil6 str3" x1="9526" y1="15550" x2="8277" y2= "15555" />
   <line id="NPParkingLinesB1F5001_101" class="fil6 str3" x1="9529" y1="15826" x2="8280" y2= "15830" />
   <line id="NPParkingLinesB1F5001_102" class="fil6 str3" x1="9523" y1="16097" x2="8274" y2= "16101" />
   <line id="NPParkingLinesB1F5001_103" class="fil6 str3" x1="8852" y1="13568" x2="8872" y2= "16099" />
   <line id="NPParkingLinesB1F5001_104" class="fil6 str3" x1="7033" y1="13506" x2="5772" y2= "13507" />
   <line id="NPParkingLinesB1F5001_105" class="fil6 str3" x1="7027" y1="13817" x2="5778" y2= "13822" />
   <line id="NPParkingLinesB1F5001_106" class="fil6 str3" x1="7030" y1="14108" x2="5781" y2= "14113" />
   <line id="NPParkingLinesB1F5001_107" class="fil6 str3" x1="7030" y1="14408" x2="5781" y2= "14412" />
   <line id="NPParkingLinesB1F5001_108" class="fil6 str3" x1="7033" y1="14683" x2="5784" y2= "14688" />
   <line id="NPParkingLinesB1F5001_109" class="fil6 str3" x1="7027" y1="14900" x2="5778" y2= "14904" />
   <line id="NPParkingLinesB1F5001_110" class="fil6 str3" x1="7030" y1="15191" x2="5781" y2= "15195" />
   <line id="NPParkingLinesB1F5001_111" class="fil6 str3" x1="7030" y1="15491" x2="5781" y2= "15495" />
   <line id="NPParkingLinesB1F5001_112" class="fil6 str3" x1="7033" y1="15766" x2="5784" y2= "15770" />
   <line id="NPParkingLinesB1F5001_113" class="fil6 str3" x1="7027" y1="16037" x2="5778" y2= "16041" />
   <line id="NPParkingLinesB1F5001_114" class="fil6 str3" x1="6356" y1="13508" x2="6377" y2= "16039" />
   <line id="NPParkingLinesB1F5001_115" class="fil6 str3" x1="4558" y1="13523" x2="3297" y2= "13525" />
   <line id="NPParkingLinesB1F5001_116" class="fil6 str3" x1="4552" y1="13835" x2="3303" y2= "13839" />
   <line id="NPParkingLinesB1F5001_117" class="fil6 str3" x1="4555" y1="14126" x2="3306" y2= "14130" />
   <line id="NPParkingLinesB1F5001_118" class="fil6 str3" x1="4555" y1="14425" x2="3306" y2= "14430" />
   <line id="NPParkingLinesB1F5001_119" class="fil6 str3" x1="4558" y1="14701" x2="3309" y2= "14705" />
   <line id="NPParkingLinesB1F5001_120" class="fil6 str3" x1="4552" y1="14918" x2="3303" y2= "14922" />
   <line id="NPParkingLinesB1F5001_121" class="fil6 str3" x1="4555" y1="15209" x2="3306" y2= "15213" />
   <line id="NPParkingLinesB1F5001_122" class="fil6 str3" x1="4555" y1="15508" x2="3306" y2= "15513" />
   <line id="NPParkingLinesB1F5001_123" class="fil6 str3" x1="4558" y1="15784" x2="3309" y2= "15788" />
   <line id="NPParkingLinesB1F5001_124" class="fil6 str3" x1="4552" y1="16055" x2="3303" y2= "16059" />
   <line id="NPParkingLinesB1F5001_125" class="fil6 str3" x1="3881" y1="13525" x2="3902" y2= "16057" />
   <line id="NPParkingLinesB1F5001_126" class="fil6 str3" x1="1239" y1="15541" x2="1870" y2= "15540" />
   <line id="NPParkingLinesB1F5001_127" class="fil6 str3" x1="1276" y1="15228" x2="1863" y2= "15226" />
   <line id="NPParkingLinesB1F5001_128" class="fil6 str3" x1="1236" y1="14937" x2="1860" y2= "14935" />
   <line id="NPParkingLinesB1F5001_129" class="fil6 str3" x1="1276" y1="14637" x2="1860" y2= "14635" />
   <line id="NPParkingLinesB1F5001_130" class="fil6 str3" x1="1275" y1="14362" x2="1858" y2= "14360" />
   <line id="NPParkingLinesB1F5001_131" class="fil6 str3" x1="1274" y1="14145" x2="1863" y2= "14143" />
   <line id="NPParkingLinesB1F5001_132" class="fil6 str3" x1="1272" y1="13854" x2="1860" y2= "13852" />
   <line id="NPParkingLinesB1F5001_133" class="fil6 str3" x1="1275" y1="13555" x2="1860" y2= "13553" />
   <line id="NPParkingLinesB1F5001_134" class="fil6 str3" x1="1267" y1="13279" x2="1858" y2= "13277" />
   <line id="NPParkingLinesB1F5001_135" class="fil6 str3" x1="1275" y1="13008" x2="1863" y2= "13006" />
   <line id="NPParkingLinesB1F5001_136" class="fil6 str3" x1="1286" y1="15540" x2="1265" y2= "13008" />
  </g>
 </g>
</svg>
