<?xml version="1.0" encoding="UTF-8"?>
<!DOCTYPE svg PUBLIC "-//W3C//DTD SVG 1.0//EN" "http://www.w3.org/TR/2001/REC-SVG-20010904/DTD/svg10.dtd">
<!-- Creator: CorelDRAW X7 -->
<svg xmlns="http://www.w3.org/2000/svg" xml:space="preserve" width="240.023mm" height="240.056mm" version="1.0" style="shape-rendering:geometricPrecision; text-rendering:geometricPrecision; image-rendering:optimizeQuality; fill-rule:evenodd; clip-rule:evenodd"
viewBox="0 0 23950 23953"
 xmlns:xlink="http://www.w3.org/1999/xlink">
 <defs>
  <style type="text/css">
   <![CDATA[
    .str1 {stroke:#FEFEFE;stroke-width:49.8901}
    .str2 {stroke:#373435;stroke-width:19.9561}
    .str0 {stroke:#FEFEFE;stroke-width:9.97803}
    .fil4 {fill:#FEFEFE}
    .fil1 {fill:#D2D3D5}
    .fil3 {fill:#4B4B4D}
    .fil0 {fill:#A3B9C4}
    .fil5 {fill:#D9E3E8}
    .fil2 {fill:#E0C2A8}
   ]]>
  </style>
 </defs>
 <g id="SITE_x0020_BACKGROUND">
  <metadata id="CorelCorpID_0Corel-Layer"/>
  <polygon id="NPROADB1F3001" class="fil0" points="4781,2401 5111,2162 5591,1842 18110,1692 18329,1826 18530,1955 18946,2240 19239,2457 19476,2643 19747,2868 19926,3024 20455,3523 20732,3811 20895,19961 20545,20334 20241,20635 19797,21039 19409,21361 18992,21677 18473,22033 17994,22327 6358,22553 6107,22416 5768,22217 5492,22045 5026,21728 4598,21408 4331,21193 3950,20863 3687,20619 3434,20369 3182,20104 3418,3597 3751,3271 3947,3090 4164,2898 4488,2629 "/>
  <path id="NPPAVINGB1F3001" class="fil1 str0" d="M15643 23376l-1019 278 -636 126 -581 84 -801 68 -759 16 -650 -24 -818 -81 -664 -107 -645 -142 -734 -208 -914 -333 -1064 -500 11636 -226 -457 253 -425 213 -508 227 -525 206 -436 150zm8302 -11174l-106 1384 -136 802 -175 738 -128 435 -188 553 -292 720 -474 949 -476 784 -419 594 -328 417 -328 383 -126 -226 -85 -470 9 -14932 39 -522 371 416 462 579 304 426 330 510 379 668 257 520 172 386 210 533 172 504 125 422 107 414 83 375 101 560 55 406 64 696 21 976zm-5835 -10510l-12519 150 534 -318 460 -245 460 -220 483 -205 640 -252 536 -149 513 -133 616 -128 500 -79 539 -62 412 -30 377 -16 615 0 341 13 408 29 326 33 280 35 332 51 307 55 261 54 305 71 609 166 413 133 449 165 262 105 361 157 461 223 719 397z"/>
  <polygon id="NPsiteB1F3001" class="fil2 str1" points="2239,5001 2639,4475 3081,3956 3418,3597 4143,3673 18273,3673 18644,3748 18943,3905 19123,4217 19159,4576 19230,19307 19178,19652 18991,19914 18627,20085 18236,20104 3182,20104 2682,19528 2245,18958 1750,18211 1382,17566 1025,16832 784,16248 570,15638 394,15034 239,14368 "/>
  <path id="NPSiteBuildingB1F3001" class="fil3 str2" d="M1043 16869l3 -2234 5477 -27 22 4320 -4300 30 -395 -596 -243 -390 -164 -293 -165 -328 -235 -482zm1437 -6514l0 -5679 186 -235 205 -246 2269 0 0 6160 -2660 0z"/>
  <polygon id="NPMallFLOORB1F3001" class="fil4" points="18995,19533 16343,19533 16343,18910 14306,18910 14306,19628 7356,19628 7356,14608 5690,14608 5690,12706 4852,12695 4852,10425 5681,10410 5660,7205 5362,7202 5362,5421 8310,5421 8310,4155 8853,4195 18766,4197 18762,9432 18995,9432 "/>
  <polygon id="NPPAVINGB1F3002" class="fil5" points="2239,5001 2206,10580 4674,10591 4677,14335 239,14368 61,13197 0,11852 53,10837 287,9355 620,8161 1033,7102 1369,6408 1692,5834 1969,5394 "/>
 </g>
</svg>
